<mxfile modified="2023-10-04T17:14:52.289Z" host="app.diagrams.net" agent="Mozilla/5.0 (Macintosh; Intel Mac OS X 10_15_7) AppleWebKit/537.36 (KHTML, like Gecko) Chrome/117.0.0.0 Safari/537.36" etag="0qWd0Z52oK88ZhzjhaTu" version="21.8.0" type="device">
  <diagram id="Ht1M8jgEwFfnCIfOTk4-" name="Page-1">
    <mxGraphModel dx="954" dy="595" grid="1" gridSize="10" guides="1" tooltips="1" connect="1" arrows="1" fold="1" page="1" pageScale="1" pageWidth="1169" pageHeight="827" math="0" shadow="0">
      <root>
        <mxCell id="0" />
        <mxCell id="1" parent="0" />
        <mxCell id="-QjtrjUzRDEMRZ5MF8oH-9" value="1" style="rounded=1;whiteSpace=wrap;html=1;fillColor=#007CBD;strokeColor=none;fontColor=#FFFFFF;fontStyle=1;fontSize=22;" parent="1" vertex="1">
          <mxGeometry x="290" y="185.5" width="40" height="38" as="geometry" />
        </mxCell>
        <mxCell id="-QjtrjUzRDEMRZ5MF8oH-47" value="awscdk-rootmail (v1 external DNS)" style="text;html=1;resizable=0;points=[];autosize=1;align=left;verticalAlign=top;spacingTop=-4;fontSize=30;fontStyle=1" parent="1" vertex="1">
          <mxGeometry x="56.5" y="64.5" width="520" height="40" as="geometry" />
        </mxCell>
        <mxCell id="-QjtrjUzRDEMRZ5MF8oH-48" value="initially by superwerker" style="text;html=1;resizable=0;points=[];autosize=1;align=left;verticalAlign=top;spacingTop=-4;fontSize=16;" parent="1" vertex="1">
          <mxGeometry x="56.5" y="114.5" width="190" height="30" as="geometry" />
        </mxCell>
        <mxCell id="SCVMTBWpLvtzJIhz15lM-1" value="" style="line;strokeWidth=2;html=1;fontSize=14;" parent="1" vertex="1">
          <mxGeometry x="52.5" y="139.5" width="1060" height="10" as="geometry" />
        </mxCell>
        <mxCell id="bbvVeTHvoaUDWQekboov-1" value="AWS Account" style="points=[[0,0],[0.25,0],[0.5,0],[0.75,0],[1,0],[1,0.25],[1,0.5],[1,0.75],[1,1],[0.75,1],[0.5,1],[0.25,1],[0,1],[0,0.75],[0,0.5],[0,0.25]];outlineConnect=0;gradientColor=none;html=1;whiteSpace=wrap;fontSize=12;fontStyle=0;container=1;pointerEvents=0;collapsible=0;recursiveResize=0;shape=mxgraph.aws4.group;grIcon=mxgraph.aws4.group_account;strokeColor=#CD2264;fillColor=none;verticalAlign=top;align=left;spacingLeft=30;fontColor=#CD2264;dashed=0;" parent="1" vertex="1">
          <mxGeometry x="55.5" y="282.5" width="993.5" height="707.5" as="geometry" />
        </mxCell>
        <mxCell id="bbvVeTHvoaUDWQekboov-5" value="eu-central-1 (or any other region SES is supported)" style="sketch=0;outlineConnect=0;gradientColor=none;html=1;whiteSpace=wrap;fontSize=12;fontStyle=0;shape=mxgraph.aws4.group;grIcon=mxgraph.aws4.group_region;strokeColor=#879196;fillColor=none;verticalAlign=top;align=left;spacingLeft=30;fontColor=#879196;dashed=1;" parent="bbvVeTHvoaUDWQekboov-1" vertex="1">
          <mxGeometry x="30" y="227.5" width="940" height="470" as="geometry" />
        </mxCell>
        <mxCell id="bbvVeTHvoaUDWQekboov-7" value="aws.mycompany.test" style="sketch=0;outlineConnect=0;fontColor=#232F3E;gradientColor=none;strokeColor=#ffffff;fillColor=#232F3E;dashed=0;verticalLabelPosition=middle;verticalAlign=bottom;align=center;html=1;whiteSpace=wrap;fontSize=10;fontStyle=1;spacing=3;shape=mxgraph.aws4.productIcon;prIcon=mxgraph.aws4.route_53;" parent="bbvVeTHvoaUDWQekboov-1" vertex="1">
          <mxGeometry x="93.5" y="97.5" width="80" height="110" as="geometry" />
        </mxCell>
        <mxCell id="bbvVeTHvoaUDWQekboov-8" value="rootmail" style="sketch=0;outlineConnect=0;fontColor=#232F3E;gradientColor=none;fillColor=#3F8624;strokeColor=none;dashed=0;verticalLabelPosition=bottom;verticalAlign=top;align=center;html=1;fontSize=12;fontStyle=0;aspect=fixed;pointerEvents=1;shape=mxgraph.aws4.bucket;" parent="bbvVeTHvoaUDWQekboov-1" vertex="1">
          <mxGeometry x="473.5" y="255" width="75" height="78" as="geometry" />
        </mxCell>
        <mxCell id="bbvVeTHvoaUDWQekboov-14" value="" style="edgeStyle=orthogonalEdgeStyle;rounded=0;orthogonalLoop=1;jettySize=auto;html=1;" parent="bbvVeTHvoaUDWQekboov-1" source="bbvVeTHvoaUDWQekboov-9" target="bbvVeTHvoaUDWQekboov-13" edge="1">
          <mxGeometry relative="1" as="geometry" />
        </mxCell>
        <mxCell id="bbvVeTHvoaUDWQekboov-16" value="" style="edgeStyle=orthogonalEdgeStyle;rounded=0;orthogonalLoop=1;jettySize=auto;html=1;" parent="bbvVeTHvoaUDWQekboov-1" source="bbvVeTHvoaUDWQekboov-9" target="bbvVeTHvoaUDWQekboov-7" edge="1">
          <mxGeometry relative="1" as="geometry" />
        </mxCell>
        <mxCell id="bbvVeTHvoaUDWQekboov-9" value="SES verified Domain&lt;br&gt;for&lt;br&gt;&lt;b&gt;aws.mycompany.test&lt;/b&gt;" style="sketch=0;points=[[0,0,0],[0.25,0,0],[0.5,0,0],[0.75,0,0],[1,0,0],[0,1,0],[0.25,1,0],[0.5,1,0],[0.75,1,0],[1,1,0],[0,0.25,0],[0,0.5,0],[0,0.75,0],[1,0.25,0],[1,0.5,0],[1,0.75,0]];outlineConnect=0;fontColor=#232F3E;gradientColor=#FF5252;gradientDirection=north;fillColor=#C7131F;strokeColor=#ffffff;dashed=0;verticalLabelPosition=bottom;verticalAlign=top;align=center;html=1;fontSize=12;fontStyle=0;aspect=fixed;shape=mxgraph.aws4.resourceIcon;resIcon=mxgraph.aws4.simple_email_service;" parent="bbvVeTHvoaUDWQekboov-1" vertex="1">
          <mxGeometry x="94.5" y="529.5" width="78" height="78" as="geometry" />
        </mxCell>
        <mxCell id="bbvVeTHvoaUDWQekboov-17" value="store" style="edgeStyle=orthogonalEdgeStyle;rounded=0;orthogonalLoop=1;jettySize=auto;html=1;" parent="bbvVeTHvoaUDWQekboov-1" source="bbvVeTHvoaUDWQekboov-13" target="bbvVeTHvoaUDWQekboov-8" edge="1">
          <mxGeometry relative="1" as="geometry">
            <Array as="points">
              <mxPoint x="353" y="505.5" />
              <mxPoint x="511" y="505.5" />
            </Array>
          </mxGeometry>
        </mxCell>
        <mxCell id="bbvVeTHvoaUDWQekboov-19" value="" style="edgeStyle=orthogonalEdgeStyle;rounded=0;orthogonalLoop=1;jettySize=auto;html=1;" parent="bbvVeTHvoaUDWQekboov-1" source="bbvVeTHvoaUDWQekboov-13" target="bbvVeTHvoaUDWQekboov-18" edge="1">
          <mxGeometry relative="1" as="geometry" />
        </mxCell>
        <mxCell id="bbvVeTHvoaUDWQekboov-20" value="invoke" style="edgeLabel;html=1;align=center;verticalAlign=middle;resizable=0;points=[];" parent="bbvVeTHvoaUDWQekboov-19" vertex="1" connectable="0">
          <mxGeometry x="-0.4697" relative="1" as="geometry">
            <mxPoint y="1" as="offset" />
          </mxGeometry>
        </mxCell>
        <mxCell id="bbvVeTHvoaUDWQekboov-13" value="rule for&lt;br&gt;&lt;b&gt;root@aws.mycompany.test&lt;/b&gt;" style="sketch=0;outlineConnect=0;fontColor=#232F3E;gradientColor=none;fillColor=#BF0816;strokeColor=none;dashed=0;verticalLabelPosition=bottom;verticalAlign=top;align=center;html=1;fontSize=12;fontStyle=0;aspect=fixed;pointerEvents=1;shape=mxgraph.aws4.filtering_rule;" parent="bbvVeTHvoaUDWQekboov-1" vertex="1">
          <mxGeometry x="313.5" y="529.5" width="78" height="78" as="geometry" />
        </mxCell>
        <mxCell id="bbvVeTHvoaUDWQekboov-22" value="" style="edgeStyle=orthogonalEdgeStyle;rounded=0;orthogonalLoop=1;jettySize=auto;html=1;" parent="bbvVeTHvoaUDWQekboov-1" source="bbvVeTHvoaUDWQekboov-18" target="bbvVeTHvoaUDWQekboov-21" edge="1">
          <mxGeometry relative="1" as="geometry" />
        </mxCell>
        <mxCell id="bbvVeTHvoaUDWQekboov-23" value="create" style="edgeLabel;html=1;align=center;verticalAlign=middle;resizable=0;points=[];" parent="bbvVeTHvoaUDWQekboov-22" vertex="1" connectable="0">
          <mxGeometry x="0.0814" relative="1" as="geometry">
            <mxPoint y="1" as="offset" />
          </mxGeometry>
        </mxCell>
        <mxCell id="bbvVeTHvoaUDWQekboov-25" value="" style="edgeStyle=orthogonalEdgeStyle;rounded=0;orthogonalLoop=1;jettySize=auto;html=1;" parent="bbvVeTHvoaUDWQekboov-1" source="bbvVeTHvoaUDWQekboov-18" target="bbvVeTHvoaUDWQekboov-24" edge="1">
          <mxGeometry relative="1" as="geometry" />
        </mxCell>
        <mxCell id="bbvVeTHvoaUDWQekboov-26" value="if it&#39;s a AWS password reset mail" style="edgeLabel;html=1;align=center;verticalAlign=middle;resizable=0;points=[];" parent="bbvVeTHvoaUDWQekboov-25" vertex="1" connectable="0">
          <mxGeometry x="-0.4374" relative="1" as="geometry">
            <mxPoint as="offset" />
          </mxGeometry>
        </mxCell>
        <mxCell id="bbvVeTHvoaUDWQekboov-18" value="OPS Santa" style="sketch=0;outlineConnect=0;fontColor=#232F3E;gradientColor=none;strokeColor=#ffffff;fillColor=#232F3E;dashed=0;verticalLabelPosition=middle;verticalAlign=bottom;align=center;html=1;whiteSpace=wrap;fontSize=10;fontStyle=1;spacing=3;shape=mxgraph.aws4.productIcon;prIcon=mxgraph.aws4.lambda;" parent="bbvVeTHvoaUDWQekboov-1" vertex="1">
          <mxGeometry x="633.5" y="518.5" width="80" height="100" as="geometry" />
        </mxCell>
        <mxCell id="bbvVeTHvoaUDWQekboov-21" value="Ops Item" style="sketch=0;outlineConnect=0;fontColor=#232F3E;gradientColor=none;fillColor=#B0084D;strokeColor=none;dashed=0;verticalLabelPosition=bottom;verticalAlign=top;align=center;html=1;fontSize=12;fontStyle=0;aspect=fixed;pointerEvents=1;shape=mxgraph.aws4.systems_manager_opscenter;" parent="bbvVeTHvoaUDWQekboov-1" vertex="1">
          <mxGeometry x="823.5" y="255" width="78" height="78" as="geometry" />
        </mxCell>
        <mxCell id="bbvVeTHvoaUDWQekboov-24" value="Parameter for&lt;br&gt;&lt;b&gt;/superwerker/rootmail/pw_reset_link&lt;/b&gt;" style="sketch=0;outlineConnect=0;fontColor=#232F3E;gradientColor=none;fillColor=#B0084D;strokeColor=none;dashed=0;verticalLabelPosition=bottom;verticalAlign=top;align=center;html=1;fontSize=12;fontStyle=0;aspect=fixed;pointerEvents=1;shape=mxgraph.aws4.parameter_store;" parent="bbvVeTHvoaUDWQekboov-1" vertex="1">
          <mxGeometry x="636" y="255" width="75" height="78" as="geometry" />
        </mxCell>
        <mxCell id="-QjtrjUzRDEMRZ5MF8oH-27" value="2" style="rounded=1;whiteSpace=wrap;html=1;fillColor=#007CBD;strokeColor=none;fontColor=#FFFFFF;fontStyle=1;fontSize=22;" parent="bbvVeTHvoaUDWQekboov-1" vertex="1">
          <mxGeometry x="33.5" y="117.5" width="40" height="38" as="geometry" />
        </mxCell>
        <mxCell id="-QjtrjUzRDEMRZ5MF8oH-28" value="3" style="rounded=1;whiteSpace=wrap;html=1;fillColor=#007CBD;strokeColor=none;fontColor=#FFFFFF;fontStyle=1;fontSize=22;" parent="bbvVeTHvoaUDWQekboov-1" vertex="1">
          <mxGeometry x="53.5" y="407.5" width="40" height="38" as="geometry" />
        </mxCell>
        <mxCell id="bbvVeTHvoaUDWQekboov-48" value="4" style="rounded=1;whiteSpace=wrap;html=1;fillColor=#007CBD;strokeColor=none;fontColor=#FFFFFF;fontStyle=1;fontSize=22;" parent="bbvVeTHvoaUDWQekboov-1" vertex="1">
          <mxGeometry x="253.5" y="518.5" width="40" height="38" as="geometry" />
        </mxCell>
        <mxCell id="bbvVeTHvoaUDWQekboov-49" value="5" style="rounded=1;whiteSpace=wrap;html=1;fillColor=#007CBD;strokeColor=none;fontColor=#FFFFFF;fontStyle=1;fontSize=22;" parent="bbvVeTHvoaUDWQekboov-1" vertex="1">
          <mxGeometry x="573.5" y="595" width="40" height="38" as="geometry" />
        </mxCell>
        <mxCell id="bbvVeTHvoaUDWQekboov-50" value="6" style="rounded=1;whiteSpace=wrap;html=1;fillColor=#007CBD;strokeColor=none;fontColor=#FFFFFF;fontStyle=1;fontSize=22;" parent="bbvVeTHvoaUDWQekboov-1" vertex="1">
          <mxGeometry x="413.5" y="281" width="40" height="38" as="geometry" />
        </mxCell>
        <mxCell id="bbvVeTHvoaUDWQekboov-51" value="7" style="rounded=1;whiteSpace=wrap;html=1;fillColor=#007CBD;strokeColor=none;fontColor=#FFFFFF;fontStyle=1;fontSize=22;" parent="bbvVeTHvoaUDWQekboov-1" vertex="1">
          <mxGeometry x="573.5" y="281" width="40" height="38" as="geometry" />
        </mxCell>
        <mxCell id="bbvVeTHvoaUDWQekboov-52" value="8" style="rounded=1;whiteSpace=wrap;html=1;fillColor=#007CBD;strokeColor=none;fontColor=#FFFFFF;fontStyle=1;fontSize=22;" parent="bbvVeTHvoaUDWQekboov-1" vertex="1">
          <mxGeometry x="773.5" y="275" width="40" height="38" as="geometry" />
        </mxCell>
        <mxCell id="bbvVeTHvoaUDWQekboov-11" value="external &lt;br&gt;DNS Provider" style="image;sketch=0;aspect=fixed;html=1;points=[];align=center;fontSize=12;image=img/lib/mscae/DNS.svg;" parent="1" vertex="1">
          <mxGeometry x="370" y="170" width="59.5" height="59.5" as="geometry" />
        </mxCell>
        <mxCell id="bbvVeTHvoaUDWQekboov-12" value="add NS entries" style="edgeStyle=orthogonalEdgeStyle;rounded=0;orthogonalLoop=1;jettySize=auto;html=1;" parent="1" source="bbvVeTHvoaUDWQekboov-7" target="bbvVeTHvoaUDWQekboov-10" edge="1">
          <mxGeometry relative="1" as="geometry" />
        </mxCell>
        <mxCell id="YakAUQQJ_CjnjevJvqgH-1" value="AWS &lt;br&gt;Account" style="points=[[0,0],[0.25,0],[0.5,0],[0.75,0],[1,0],[1,0.25],[1,0.5],[1,0.75],[1,1],[0.75,1],[0.5,1],[0.25,1],[0,1],[0,0.75],[0,0.5],[0,0.25]];outlineConnect=0;gradientColor=none;html=1;whiteSpace=wrap;fontSize=12;fontStyle=0;container=1;pointerEvents=0;collapsible=0;recursiveResize=0;shape=mxgraph.aws4.group;grIcon=mxgraph.aws4.group_account;strokeColor=#CD2264;fillColor=none;verticalAlign=top;align=left;spacingLeft=30;fontColor=#CD2264;dashed=0;" parent="1" vertex="1">
          <mxGeometry x="56.5" y="152.5" width="213.5" height="117.5" as="geometry" />
        </mxCell>
        <mxCell id="bbvVeTHvoaUDWQekboov-10" value="mycompany.test" style="sketch=0;outlineConnect=0;fontColor=#232F3E;gradientColor=none;strokeColor=#ffffff;fillColor=#232F3E;dashed=0;verticalLabelPosition=middle;verticalAlign=bottom;align=center;html=1;whiteSpace=wrap;fontSize=10;fontStyle=1;spacing=3;shape=mxgraph.aws4.productIcon;prIcon=mxgraph.aws4.route_53;" parent="YakAUQQJ_CjnjevJvqgH-1" vertex="1">
          <mxGeometry x="92.5" y="3.75" width="80" height="110" as="geometry" />
        </mxCell>
      </root>
    </mxGraphModel>
  </diagram>
</mxfile>
